<?xml version="1.0" encoding="utf-8"?>
<!-- Generator: Adobe Illustrator 24.2.0, SVG Export Plug-In . SVG Version: 6.00 Build 0)  -->
<svg version="1.1" id="Layer_1" xmlns="http://www.w3.org/2000/svg" xmlns:xlink="http://www.w3.org/1999/xlink" x="0px" y="0px"
	 viewBox="0 0 1233 529" style="enable-background:new 0 0 1233 529;" xml:space="preserve">
<style type="text/css">
	.st0{fill:#FFFFFF;}
</style>
<g>
	<path d="M542.5,21c9.9,1.3,19.8,2.3,29.6,4c56.4,9.9,98.7,40.2,126.8,89.8c13.7,24.2,17,50.1,5.4,76.3c-2.6,5.9-6.7,11.6-11.3,16.1
		c-21.1,20.7-45.7,35.4-75.1,41.3c-24.6,4.9-48.5,2.2-71.7-6.5c-18.5-7-26.2-22.3-27.5-41.1c-0.5-6.6,0-13.4,1-19.9
		c0.6-3.9,2.5-8,4.8-11.3c13.2-19.2,32.4-29.6,54.3-35.7c5.9-1.6,11.9-2.9,17.8-4.3c0.1-0.5,0.2-1,0.2-1.5
		c-11.8-2.4-23.6-5.5-35.5-7.2c-41.7-5.6-82.7,0.2-123.5,8.6c-78.3,16.3-151.8,44.8-219.8,87.1c-31.8,19.8-62.1,41.4-87.3,69.4
		c-10.9,12.1-20.4,25.1-25.7,40.7c-4.6,13.7-3.7,26.4,4.5,39c15.5,24,38,37.2,64.9,44c25,6.4,50.6,8.2,76.3,8.9
		c48.7,1.3,97.3-0.7,145.7-6.1c41.3-4.7,81.6-13.7,117.8-35.1c13.1-7.7,25-17.6,37-27.1c3.7-2.9,5.9-7.7,9.6-12.8
		c-13.4-2.1-25.1-4.2-37-5.7c-52.5-6.4-105.1-4.8-157.8-2.5c-52.3,2.3-104.6,4.3-156.8,6.1c-5.7,0.2-12.1-1-17.2-3.5
		c-9.3-4.8-16.7-23.9-14.4-34.1c2.3-10.3,10-16.9,20.6-18.1c123.5-13.4,247.5-19,371.7-19.6c32.6-0.2,65.2,2.2,97.8,3.8
		c9.6,0.5,19.1,2.7,27.1,8.7c18.2-18.9,40.3-19.7,62.7-11.8c24.1,8.5,32,29.8,36.3,53.7c1.1-1.8,1.8-3,2.6-4.2
		c5.3-8.2,10.1-16.9,16.2-24.5c9.4-11.8,22.1-17.9,37.5-17.9c16.1,0,32.3-0.4,48.4,0.1c15.1,0.4,26.3,7,33.5,21.1
		c9,17.7,13.9,35.5,7.7,55.2c-2.6,8.2-4.3,16.7-5.8,25.2c-0.7,4.2-0.4,8.7,0.4,12.9c0.6,2.7,2.4,6.3,4.7,7.3
		c3.6,1.5,8.3,1.2,10.8-2.7c4.1-6.4,9.4-12.7,11.2-19.8c4.9-18.5,8.3-37.3,12.1-56.1c0.5-2.5,0-5.3-0.3-8
		c-2.1-18.2,6.5-32.6,23.9-37.8c21.7-6.5,43.9-7.6,66.3-3.8c22.7,3.8,35.6,26.7,28.7,48.9c-3.6,11.6-10.7,21-18.9,29.6
		c-15.2,15.8-20.5,35.7-23.7,57.3c1.3-0.6,2.1-0.8,2.6-1.2c18.9-15.8,32-36,42.2-58.1c1.2-2.5,0.7-5.9,0.9-8.8
		c0.5-9,0.2-18.1,1.7-26.9c3.4-20,15.1-32.9,35.1-37.8c17-4.1,34.2-5.5,51.5-1.6c16,3.6,25.1,16.2,21.7,32.2
		c-2.7,12.8-7.7,25-11.9,37.4c-1.8,5.3-4.3,10.4-6.7,16.1c3.7-1.3,6.7-2.6,9.8-3.3c13.4-3.2,25.7,3.9,29.9,17c0.5,1.6,1,3.1,1.6,4.7
		c0,4.3,0,8.7,0,13c-0.4,1.4-0.8,2.8-1.1,4.3c-4.4,20.6-12.3,39.8-25.1,56.6c-20.8,27.2-54.8,32.2-82.6,12.6
		c-1.1-0.8-3.4-0.8-4.7-0.1c-38.5,20.8-79.4,25.7-122,18.9c-11.1-1.8-18.7-8.1-23.5-18.1c-0.5-1.1-1.2-2.2-1.6-3.1
		c-7.3,2.9-14.1,6.2-21.2,8.4c-32.2,10.3-61-0.9-77.2-30.6c-4.6-8.4-7.5-17.7-11.1-26.7c-0.7-1.7-1.2-3.5-1.8-5.3
		c-0.5,0-1.1,0-1.6,0c-1.6,5.2-3.9,10.3-4.5,15.6c-1,8.9-0.7,17.9-1.1,26.9c-0.5,13.7-6.7,23.8-17.7,26.9c-24.8,7-49.5,6.6-73.3-4
		c-16.1-7.1-27-19.2-31.3-36.6c-2.3-9-4.6-18.1-6.7-27.1c-3.1-13.2-6.1-26.5-9.2-39.7c-7.4,3.3-14.2,6.9-21.3,9.3
		c-11.5,4-22.9,4.5-32.6-4.2c-3.2,3.1-6.5,5.9-9.5,9c-28.1,28.2-60.3,50.8-94.8,70.4c-42,23.9-85.8,43.4-132.9,54.9
		c-25.3,6.2-51.2,5.8-76.9,7.5c-11.9,0.8-23.9,1.4-35.9,2c-19.3,0-38.7,0-58,0c-2.6-0.3-5.2-0.8-7.9-0.9
		c-26.8-1.3-53.3-4.6-79.4-11.2c-48.1-12.2-89.5-35.5-121.3-74.1c-13.7-16.6-26.3-34-30.8-55.7c-1.3-6.3-2.4-12.7-3.6-19
		c0-8,0-16,0-24c0.3-1.8,0.8-3.5,1-5.3c4.7-38.7,19.7-72.4,47.8-99.8c39.1-38.2,83-69.8,130.9-96.1C241.7,90.7,302,68.8,363.5,50
		c39.1-11.9,78.6-21.8,119.2-26.5c7.9-0.9,15.9-1.7,23.8-2.5C518.5,21,530.5,21,542.5,21z M205.5,314.7c0.9,0,2.7,0.1,4.5,0
		c58.8-2.4,117.5-4.8,176.3-7.1c49.3-2,98.6-2.3,147.7,4.5c11.2,1.6,22.4,3.4,33.4,6.1c12,3.1,16.6,11.8,13.1,23.8
		c-2.6,8.9-7,16.9-13.8,23.4c-14,13.2-29.6,24.3-46.5,33.4c-37.8,20.4-78.8,30.2-121.1,34.9c-51.2,5.7-102.7,7.9-154.2,6.1
		c-26-0.9-51.9-3.1-77.2-9.8c-34.2-9-61.5-27.1-79.2-58.5c-7-12.4-8.5-25.4-6.3-39.1c3.1-18.9,12.6-34.9,24.2-49.8
		c21.6-27.4,48.4-49,77.1-68.4c73.8-50,154.3-84.1,241.3-103.2c45.9-10.1,92.1-16.9,139.2-10.9c26.8,3.4,52,11.4,74.8,26.1
		c7,4.5,6.7,12.4-0.8,16.2c-3.2,1.7-6.8,2.8-10.3,3.5c-9.5,1.9-19,3.3-28.5,5.1c-17,3.2-33.2,8.1-47.1,19.2
		c-9.7,7.7-14.2,17.1-12.5,29.6c1.3,9.9,4.1,19,14.4,22.7c17.8,6.3,36.1,9,55,6.1c25.8-4,47.1-16.5,66.4-33.4
		c9-7.8,12.8-17.6,14.1-28.8c2.4-21-5.8-38.8-17.6-55.3c-30.3-42.6-72.5-63.8-124-68c-32.3-2.6-64.3,0.2-95.9,6.5
		C381,63.8,312.3,86,246.1,115.3c-61.7,27.3-117.9,63-167.9,108.6c-30,27.4-47.7,60.3-51.2,100.7c-2.1,24,2.3,46.5,16.3,67
		c25.4,37,59.2,62.7,101.4,77.4c37.7,13.2,76.9,17.6,116.5,17.7c34.8,0.1,69.6-1.8,104.4-3c17-0.6,33.9-1.8,50.5-6.2
		c72.6-19.5,138-53.3,196-101.1c24.4-20.1,45.5-43,57.3-73.2c1.3-3.2,5.1-5.4,7.7-8c1.6-1.5,3.2-3,4.8-4.5c-1.9-1.2-3.6-3.1-5.6-3.5
		c-9.8-1.6-19.7-3.4-29.7-3.9c-63.5-3.6-127-2.1-190.4,0.5c-53.1,2.1-106.2,5.1-159.2,8.5c-31.4,2-62.7,5.6-94,8.6
		c-1.6,0.2-3.1,1.2-4.7,1.9c0.8,1.7,1.6,3.5,2.5,5.1C202.3,309.9,203.7,312,205.5,314.7z M722.8,325.5c1.4,4.2,2.8,7.7,3.7,11.4
		c6.4,26.5,13,53,18.9,79.6c3.4,15.3,12.6,24.6,27,29.2c15.6,5,31.5,5.1,47.4,1.8c6.6-1.4,7.5-2.5,7.7-9.5c0.2-6.5-0.1-13,0.2-19.5
		c1.1-22.8,10.8-41.3,28.5-55.5c6.7-5.4,10.1-4.2,12.9,3.9c2.5,7.2,4.4,14.7,6.5,22c3.8,13,7.7,25.9,16,36.9
		c8.3,11,19.4,16.5,33.2,16.1c10.9-0.3,20.9-4.1,30.3-9.2c8.2-4.4,16.1-9.5,24.2-14c5-2.7,6.1-1.9,6.3,3.6c0.3,6.5,0.3,13,1.1,19.4
		c0.7,5.4,3.9,8.9,9.7,9.9c24.7,4.1,49.1,3,73.3-3.2c18.4-4.7,35.5-12.4,49.8-25c4.1,4.4,7.6,8.8,11.7,12.7
		c7.6,7.2,16.6,10.4,27.1,7.8c11.3-2.8,21.1-8,27.9-17.9c9.2-13.5,15.5-28.3,19.2-44.2c0.7-3.1,1.1-6.3,1-9.4
		c-0.1-6.7-3.9-8.8-9.4-4.8c-3.2,2.3-6.1,5.3-8.3,8.5c-4.7,7.1-8.8,14.5-13.2,21.7c-3.3,5.4-6.5,10.9-10.5,15.7
		c-5.7,6.9-11.2,5.9-14.6-2.5c-1.1-2.7-2-5.8-1.8-8.7c0.4-6.4,0.6-13.2,2.7-19.2c6.8-19.4,14.5-38.6,21.7-57.9
		c3.9-10.6,7.8-21.2,10.9-32.1c1.9-6.5-0.4-9.2-7.1-10.3c-14.2-2.4-28.2-1.3-42,2.5c-9.7,2.6-15.5,9.3-17.1,18.9
		c-1.3,8.2-1.5,16.6-1.5,24.9c-0.1,7.6-1.1,14.8-4.6,21.7c-7.6,15.1-16.4,29.4-27.2,42.4c-9,10.8-18.6,21.1-31.7,27.1
		c-16.3,7.4-23.7,4.5-24.1-14.5c-0.6-30.9,8.6-58.7,30.2-81.6c5.7-6.1,10.9-12.6,13.1-20.9c2.7-10.3-2.4-19.2-12.7-21
		c-18.6-3.2-37.2-2.1-55.4,3c-8.1,2.3-10.6,7.1-9.9,15.6c0.4,4.6,0.9,9.4,0.2,13.9c-2.6,15.1-5.7,30.1-8.7,45.1
		c-3.2,16.3-9.6,31.3-21.5,43.1c-16.8,16.7-43.9,9.1-49.7-13.8c-3.9-15.6-2-31.3,3.5-45.7c6.1-15.8,3.4-29.3-3.7-43.5
		c-3.8-7.6-9.2-11-17.2-11c-15.1-0.1-30.3,0.1-45.4,0c-9.9-0.1-18,3.9-23.7,11.8c-5.2,7.3-9.9,15-14.1,22.9
		c-5.7,10.5-10.5,21.6-16.3,32c-2.4,4.3-6.2,8.3-10.2,11.3c-4.3,3.3-8.1,1.7-9.4-3.6c-1.2-5.2-1.7-10.5-2.1-15.8
		c-1.2-15.7-1.2-31.7-6.9-46.8c-4.6-12.3-12.8-20.8-26.2-22.4c-5.7-0.7-11.6,0.2-17.4,0.6c-7.5,0.5-12.3,4.5-14.6,11.6
		c-3.5,10.4-9.3,19.5-16.1,28c-6.2,7.8-12.4,15.7-18.5,23.6c-1.6,2-2.9,4.3-4.3,6.5c0.3,0.4,0.6,0.9,1,1.3
		C692.3,349.1,705.6,334.3,722.8,325.5z"/>
	<path class="st0" d="M205.5,314.7c-1.8-2.7-3.2-4.8-4.4-7c-1-1.6-1.7-3.4-2.5-5.1c1.6-0.6,3.1-1.7,4.7-1.9c31.3-3,62.6-6.6,94-8.6
		c53-3.4,106.1-6.3,159.2-8.5c63.4-2.6,126.9-4.1,190.4-0.5c9.9,0.6,19.8,2.4,29.7,3.9c2,0.3,3.7,2.3,5.6,3.5
		c-1.6,1.5-3.2,3-4.8,4.5c-2.7,2.6-6.5,4.8-7.7,8c-11.9,30.2-33,53.1-57.3,73.2c-58,47.7-123.3,81.6-196,101.1
		c-16.5,4.4-33.5,5.6-50.5,6.2c-34.8,1.2-69.6,3-104.4,3c-39.6-0.1-78.8-4.5-116.5-17.7c-42.3-14.7-76.1-40.4-101.4-77.4
		c-14-20.5-18.4-42.9-16.3-67c3.4-40.4,21.1-73.3,51.2-100.7c50-45.6,106.2-81.4,167.9-108.6C312.3,86,381,63.8,452,49.5
		c31.6-6.4,63.6-9.1,95.9-6.5c51.5,4.2,93.6,25.4,124,68c11.8,16.5,19.9,34.3,17.6,55.3c-1.3,11.2-5.1,21-14.1,28.8
		c-19.3,16.9-40.7,29.5-66.4,33.4c-18.9,2.9-37.2,0.2-55-6.1c-10.3-3.7-13.1-12.7-14.4-22.7c-1.6-12.4,2.9-21.9,12.5-29.6
		c13.9-11.1,30.1-16,47.1-19.2c9.5-1.8,19-3.2,28.5-5.1c3.5-0.7,7.1-1.9,10.3-3.5c7.4-3.9,7.7-11.7,0.8-16.2
		c-22.8-14.8-48-22.7-74.8-26.1c-47.2-6-93.3,0.8-139.2,10.9c-87,19.1-167.6,53.2-241.3,103.2c-28.6,19.4-55.5,41-77.1,68.4
		c-11.6,14.8-21.1,30.8-24.2,49.8c-2.2,13.6-0.8,26.7,6.3,39.1c17.7,31.4,45.1,49.5,79.2,58.5c25.3,6.7,51.2,8.9,77.2,9.8
		c51.5,1.8,103-0.4,154.2-6.1c42.3-4.7,83.3-14.5,121.1-34.9c16.9-9.1,32.5-20.2,46.5-33.4c6.8-6.4,11.3-14.4,13.8-23.4
		c3.4-11.9-1.1-20.7-13.1-23.8c-10.9-2.8-22.2-4.6-33.4-6.1c-49.1-6.8-98.4-6.5-147.7-4.5c-58.8,2.3-117.5,4.7-176.3,7.1
		C208.1,314.8,206.3,314.7,205.5,314.7z"/>
	<path class="st0" d="M722.8,325.5c-17.2,8.8-30.5,23.6-50.2,24.4c-0.3-0.4-0.6-0.9-1-1.3c1.4-2.2,2.7-4.4,4.3-6.5
		c6.1-7.9,12.3-15.7,18.5-23.6c6.8-8.5,12.6-17.6,16.1-28c2.4-7.1,7.1-11.1,14.6-11.6c5.8-0.3,11.7-1.3,17.4-0.6
		c13.4,1.7,21.6,10.1,26.2,22.4c5.7,15.1,5.6,31,6.9,46.8c0.4,5.3,1,10.6,2.1,15.8c1.2,5.3,5,6.9,9.4,3.6c4-3.1,7.8-7,10.2-11.3
		c5.9-10.4,10.6-21.5,16.3-32c4.3-7.9,8.9-15.6,14.1-22.9c5.7-7.9,13.7-11.8,23.7-11.8c15.1,0.1,30.3-0.1,45.4,0
		c8,0,13.5,3.4,17.2,11c7.1,14.2,9.7,27.7,3.7,43.5c-5.5,14.4-7.4,30.2-3.5,45.7c5.7,22.9,32.9,30.5,49.7,13.8
		c12-11.9,18.3-26.8,21.5-43.1c3-15,6.1-30,8.7-45.1c0.8-4.5,0.2-9.3-0.2-13.9c-0.7-8.4,1.8-13.3,9.9-15.6c18.2-5.1,36.8-6.2,55.4-3
		c10.4,1.8,15.4,10.7,12.7,21c-2.2,8.3-7.4,14.8-13.1,20.9c-21.6,22.9-30.8,50.7-30.2,81.6c0.4,19,7.8,21.9,24.1,14.5
		c13-5.9,22.6-16.3,31.7-27.1c10.8-13,19.6-27.3,27.2-42.4c3.5-6.9,4.6-14.1,4.6-21.7c0.1-8.3,0.2-16.7,1.5-24.9
		c1.5-9.6,7.4-16.2,17.1-18.9c13.8-3.8,27.9-4.9,42-2.5c6.8,1.1,9,3.8,7.1,10.3c-3.1,10.8-7,21.5-10.9,32.1
		c-7.1,19.3-14.9,38.4-21.7,57.9c-2.1,6-2.2,12.7-2.7,19.2c-0.2,2.9,0.7,6,1.8,8.7c3.4,8.4,8.9,9.4,14.6,2.5
		c4-4.9,7.2-10.4,10.5-15.7c4.5-7.2,8.5-14.7,13.2-21.7c2.2-3.3,5.1-6.3,8.3-8.5c5.5-4,9.3-1.9,9.4,4.8c0,3.1-0.3,6.4-1,9.4
		c-3.7,15.9-9.9,30.7-19.2,44.2c-6.8,9.9-16.7,15.1-27.9,17.9c-10.4,2.6-19.5-0.6-27.1-7.8c-4.1-3.8-7.7-8.2-11.7-12.7
		c-14.3,12.6-31.4,20.3-49.8,25c-24.2,6.2-48.6,7.3-73.3,3.2c-5.8-1-9-4.5-9.7-9.9c-0.8-6.4-0.8-12.9-1.1-19.4
		c-0.2-5.6-1.3-6.4-6.3-3.6c-8.2,4.5-16,9.5-24.2,14c-9.4,5.1-19.4,8.9-30.3,9.2c-13.8,0.4-24.9-5.1-33.2-16.1
		c-8.3-11-12.2-23.9-16-36.9c-2.1-7.3-4-14.8-6.5-22c-2.8-8.1-6.2-9.2-12.9-3.9c-17.7,14.2-27.4,32.7-28.5,55.5
		c-0.3,6.5,0,13-0.2,19.5c-0.2,7-1.1,8.1-7.7,9.5c-15.9,3.3-31.8,3.1-47.4-1.8c-14.4-4.6-23.6-13.9-27-29.2
		c-6-26.6-12.5-53.1-18.9-79.6C725.5,333.2,724.1,329.7,722.8,325.5z"/>
</g>
</svg>
