<?xml version="1.0" standalone="no"?>
<!DOCTYPE svg PUBLIC "-//W3C//DTD SVG 20010904//EN"
 "http://www.w3.org/TR/2001/REC-SVG-20010904/DTD/svg10.dtd">
<svg version="1.0" xmlns="http://www.w3.org/2000/svg"
 width="200.000000pt" height="200.000000pt" viewBox="0 0 200.000000 200.000000"
 preserveAspectRatio="xMidYMid meet">
<metadata>
Created by potrace 1.11, written by Peter Selinger 2001-2013
</metadata>
<g transform="translate(0.000000,200.000000) scale(0.100000,-0.100000)"
fill="#000000" stroke="none">
<path d="M1335 1645 c-146 -23 -211 -40 -407 -106 -340 -113 -582 -251 -776
-441 -66 -65 -100 -126 -125 -220 -32 -122 -2 -226 97 -330 92 -98 180 -147
331 -184 81 -20 115 -22 346 -22 347 0 420 14 645 123 217 105 409 259 463
370 13 28 33 58 45 67 l21 17 -30 12 c-49 19 -613 16 -965 -6 -186 -12 -250
-16 -285 -20 -22 -2 -67 -7 -100 -10 -33 -4 -61 -8 -63 -10 -2 -2 1 -12 7 -22
7 -14 19 -19 43 -17 18 1 112 5 208 9 96 4 200 8 230 10 30 2 125 4 210 4 298
1 440 -24 440 -79 0 -115 -255 -259 -520 -294 -195 -26 -562 -27 -678 -1 -12
3 -32 7 -44 10 -82 18 -191 102 -230 178 -28 55 -21 136 17 203 109 193 524
448 879 540 262 68 458 85 586 49 3 -1 19 -5 35 -10 41 -11 119 -50 133 -67
20 -25 -5 -40 -99 -59 -98 -20 -137 -36 -180 -76 -22 -21 -26 -31 -23 -66 6
-53 25 -73 86 -87 102 -25 242 17 317 94 30 31 35 44 39 96 4 53 1 66 -28 117
-56 100 -148 175 -262 214 -78 27 -245 33 -363 14z"/>
</g>
</svg>
